<?xml version="1.0" encoding="utf-8"?>
<svg version="1.1" id="ThreeJS" xmlns="http://www.w3.org/2000/svg" xmlns:xlink="http://www.w3.org/1999/xlink" x="0px" y="0px"
	 viewBox="0 0 640 640" style="enable-background:new 0 0 640 640;" xml:space="preserve">
<polygon points="179.1,467.8 204.9,570.6 573.3,213 80.1,73.3 108.6,187 197.9,100.3 205.2,102.3 235.4,222.9 324.8,136.2 
	332.1,138.3 362.3,258.7 451.6,172.1 458.9,174.2 490.9,301.8 485.7,306.9 112.2,201.2 112.2,201.2 140.7,314.8 229.7,228.5 
	237.4,230.7 267.5,350.7 356.2,264.7 364.4,267 396.1,393.8 390.9,398.9 144.3,329 144.3,329 172.8,442.6 260.9,357.2 269.8,359.7 
	301.4,485.7 296.2,490.8 176.4,456.9 179.1,467.8 170.9,469.8 164.6,444.7 291.4,480.6 291.4,480.6 262.9,367 168.2,459 134.3,324 
	139.5,318.9 386.1,388.7 386.1,388.7 357.7,275 269.7,360.4 260.6,357.8 230.8,239.2 136.1,331.1 102.2,196.2 107.4,191.1 
	480.9,296.7 452.4,183.1 364,268.9 355.5,266.5 325.6,147.2 237.3,232.9 228.6,230.4 198.7,111.3 104,203.3 68.3,61.2 589.7,208.8 
	200.3,586.9 170.9,469.8 "/>
</svg>
